<?xml version="1.0" encoding="utf-8"?>

<!-- Uploaded to: SVG Repo, www.svgrepo.com, Generator: SVG Repo Mixer Tools -->
<svg version="1.1" id="Icons" xmlns="http://www.w3.org/2000/svg" xmlns:xlink="http://www.w3.org/1999/xlink" 
	 viewBox="0 0 32 32" xml:space="preserve">
<style type="text/css">
	.st0{fill:none;stroke:#000000;stroke-width:2;stroke-linecap:round;stroke-linejoin:round;stroke-miterlimit:10;}
</style>
<path d="M21,19h-3h-4.5c-0.6,0-1,0.4-1,1c0,0.3-0.2,0.5-0.5,0.5s-0.5-0.2-0.5-0.5c0-0.6-0.4-1-1-1H6H3c-0.6,0-1,0.4-1,1
	c0,5.5,4.5,10,10,10s10-4.5,10-10C22,19.4,21.6,19,21,19z M16.9,21c-0.2,1.1-0.8,2-1.6,2.7L14,21.5c0.1-0.2,0.2-0.3,0.3-0.5H16.9z
	 M11.7,22.5c0.1,0,0.2,0,0.3,0c0.1,0,0.2,0,0.3,0l1.3,2.3c-0.5,0.2-1,0.3-1.6,0.3s-1.1-0.1-1.6-0.3L11.7,22.5z M9.7,21
	c0.1,0.2,0.2,0.3,0.3,0.5l-1.3,2.3C7.9,23,7.3,22.1,7.1,21H9.7z"/>
<g>
	<path d="M18.4,10.7c-0.7,0-1.2-0.1-1.2-0.1c-0.4-0.1-0.8-0.4-0.8-0.8c0-0.2-0.6-4,1.6-6.2C20.1,1.5,24,2,24.1,2
		c0.4,0.1,0.8,0.4,0.8,0.8c0,0.2,0.6,4-1.6,6.2C21.9,10.5,19.7,10.7,18.4,10.7z"/>
</g>
<path d="M25.9,9c-0.3,0.5-0.7,1-1.1,1.5c-1.9,1.9-4.5,2.3-6.4,2.3c-0.8,0-1.3-0.1-1.5-0.1c-1.3-0.2-2.4-1.2-2.5-2.5
	c0-0.3-0.2-1.8,0.1-3.6C9.9,8,6.5,12.1,6,17h4.5h3H21c1.7,0,3,1.3,3,3c0,4.1-2.1,7.8-5.3,10C25,29.6,30,24.4,30,18
	C30,14.4,28.4,11.2,25.9,9z"/>
</svg>